<svg width="112" height="112" viewBox="0 0 112 112" fill="none" xmlns="http://www.w3.org/2000/svg">
<g filter="url(#filter0_f_63_321)">
<rect x="88" y="24" width="64" height="64" transform="rotate(90 88 24)" fill="#DFDFDF" fill-opacity="0.7"/>
</g>
<rect x="98" y="31" width="48" height="64" transform="rotate(90 98 31)" fill="#FF5722"/>
<path d="M66.0067 60.5335C65.7133 60.5335 65.4467 60.4268 65.2333 60.2135L58.5667 53.2801C58.1667 52.8535 58.1667 52.1868 58.5933 51.7601C59.02 51.3601 59.6867 51.3601 60.1133 51.7868L66.0067 57.9201L71.9 51.7868C72.3 51.3601 72.9934 51.3601 73.42 51.7601C73.8467 52.1601 73.8467 52.8535 73.4466 53.2801L66.78 60.2135C66.5667 60.4268 66.3 60.5335 66.0067 60.5335Z" fill="white"/>
<defs>
<filter id="filter0_f_63_321" x="0" y="0" width="112" height="112" filterUnits="userSpaceOnUse" color-interpolation-filters="sRGB">
<feFlood flood-opacity="0" result="BackgroundImageFix"/>
<feBlend mode="normal" in="SourceGraphic" in2="BackgroundImageFix" result="shape"/>
<feGaussianBlur stdDeviation="12" result="effect1_foregroundBlur_63_321"/>
</filter>
</defs>
</svg>
