<svg width="177" height="54" viewBox="0 0 177 54" fill="none" xmlns="http://www.w3.org/2000/svg">
<path d="M0.6 36.568C1.536 36.5333 2.24667 36.4293 2.732 36.256C3.21733 36.048 3.59867 35.632 3.876 35.008C4.15333 34.384 4.292 33.396 4.292 32.044V12.128C4.292 10.1867 4.36133 8.62667 4.5 7.448L0.6 7.604V3.6H26.6L26.912 13.688H23.48C23.48 11.1227 22.856 9.35466 21.608 8.384C20.3947 7.37867 18.9213 6.91066 17.188 6.98L15.316 7.032C14.484 7.06667 13.8253 7.188 13.34 7.396C12.8547 7.56933 12.4733 7.98533 12.196 8.644C11.9533 9.30266 11.832 10.2733 11.832 11.556V20.604H17.188C17.1533 20.1533 17.084 18.6627 16.98 16.132H20.984V28.768H17.552C17.552 27.3813 17.3267 26.3587 16.876 25.7C16.46 25.0067 15.888 24.5733 15.16 24.4C14.4667 24.2267 13.5653 24.1573 12.456 24.192H11.832V31.472C11.832 33.4133 11.7627 34.9733 11.624 36.152C12.7333 36.048 14.276 35.996 16.252 35.996V40H0.6V36.568ZM29.0773 36.62C30.3946 36.62 31.2266 36.256 31.5733 35.528C31.9546 34.8 32.1453 33.6213 32.1453 31.992V23.256C32.1453 21.696 32.2146 20.2227 32.3533 18.836L28.7133 18.992V15.04C30.8973 15.04 32.6653 14.884 34.0173 14.572C35.3693 14.26 36.2706 13.896 36.7213 13.48H39.2693C39.3386 14 39.3906 14.676 39.4253 15.508C39.46 16.34 39.4773 17.1547 39.4773 17.952H39.5813C41.9386 14.7627 44.4346 13.168 47.0693 13.168C48.3866 13.168 49.4613 13.532 50.2933 14.26C51.16 14.988 51.5933 16.0627 51.5933 17.484C51.5933 18.3853 51.2986 19.2173 50.7093 19.98C50.12 20.7427 49.236 21.124 48.0573 21.124C47.1906 21.124 46.4106 20.8987 45.7173 20.448C45.0586 19.9973 44.6773 19.2173 44.5733 18.108C43.6026 18.108 42.5973 18.68 41.5573 19.824C40.552 20.9333 39.876 22.0427 39.5293 23.152V31.628C39.5293 33.292 39.46 34.8173 39.3213 36.204C40.4306 36.1 41.5573 36.048 42.7013 36.048V40H29.0773V36.62ZM61.3937 8.852C60.215 8.852 59.2444 8.45333 58.4817 7.656C57.719 6.824 57.3377 5.81867 57.3377 4.64C57.3377 3.46133 57.7364 2.456 58.5337 1.624C59.331 0.757332 60.267 0.323999 61.3417 0.323999C62.451 0.323999 63.3697 0.739999 64.0977 1.572C64.8604 2.404 65.2417 3.42667 65.2417 4.64C65.2417 5.85333 64.8777 6.85866 64.1497 7.656C63.4564 8.45333 62.5377 8.852 61.3937 8.852ZM54.0617 36.62C55.379 36.62 56.211 36.256 56.5577 35.528C56.939 34.8 57.1297 33.6213 57.1297 31.992V23.36C57.1297 21.7307 57.199 20.2227 57.3377 18.836L53.6977 18.992V15.04C55.8817 15.04 57.6497 14.884 59.0017 14.572C60.3537 14.26 61.255 13.896 61.7057 13.48H64.5137V31.628C64.5137 33.292 64.4444 34.8173 64.3057 36.204C65.415 36.1 66.5417 36.048 67.6857 36.048V40H54.0617V36.62ZM83.0334 40.832C81.5427 40.832 80.0867 40.6413 78.6654 40.26C77.2441 39.8787 76.1347 39.3933 75.3374 38.804H75.2854L75.4414 40.364H71.4894L71.2814 31.42H74.6614C74.8347 33.0147 75.6667 34.3667 77.1574 35.476C78.6827 36.5507 80.5374 37.088 82.7214 37.088C83.6921 37.088 84.5241 36.8627 85.2174 36.412C85.9454 35.9613 86.3094 35.32 86.3094 34.488C86.3094 33.864 86.0841 33.344 85.6334 32.928C85.1827 32.512 84.6454 32.1653 84.0214 31.888C83.3974 31.6107 82.1494 31.108 80.2774 30.38C78.0587 29.5133 76.3947 28.8027 75.2854 28.248C74.1761 27.6933 73.1707 26.8787 72.2694 25.804C71.4027 24.6947 70.9694 23.2733 70.9694 21.54C70.9694 20.1187 71.3161 18.784 72.0094 17.536C72.7374 16.2533 73.8294 15.2133 75.2854 14.416C76.7761 13.584 78.5961 13.168 80.7454 13.168C81.7507 13.168 82.8427 13.324 84.0214 13.636C85.2001 13.948 86.1881 14.3813 86.9854 14.936H87.0374L86.9854 13.428H90.9374V22.632H87.5574C87.2454 20.8293 86.4481 19.408 85.1654 18.368C83.8827 17.328 82.3054 16.808 80.4334 16.808C79.4627 16.808 78.6481 17.0333 77.9894 17.484C77.3307 17.9347 77.0014 18.628 77.0014 19.564C77.0014 20.5347 77.3827 21.2627 78.1454 21.748C78.9081 22.1987 80.1907 22.7187 81.9934 23.308C82.2014 23.3427 82.6521 23.4813 83.3454 23.724C86.2921 24.764 88.5454 25.9773 90.1054 27.364C91.7001 28.7507 92.4974 30.5707 92.4974 32.824C92.4974 34.5573 92.0467 36.0307 91.1454 37.244C90.2787 38.4227 89.1174 39.324 87.6614 39.948C86.2401 40.5373 84.6974 40.832 83.0334 40.832ZM95.7917 49.88C97.109 49.88 97.9584 49.516 98.3397 48.788C98.721 48.06 98.9117 46.8813 98.9117 45.252V23.256C98.9117 21.696 98.981 20.2227 99.1197 18.836L95.4277 18.992V15.04C97.6117 15.04 99.3797 14.884 100.732 14.572C102.084 14.26 102.985 13.896 103.436 13.48H105.984C106.053 14.0693 106.14 14.9013 106.244 15.976H106.296C108.445 14.104 110.768 13.168 113.264 13.168C115.344 13.168 117.164 13.7053 118.724 14.78C120.318 15.8547 121.549 17.3973 122.416 19.408C123.317 21.384 123.768 23.6893 123.768 26.324C123.768 29.0973 123.23 31.5933 122.156 33.812C121.081 35.996 119.556 37.712 117.58 38.96C115.638 40.208 113.402 40.832 110.872 40.832C109.52 40.832 107.977 40.52 106.244 39.896V44.888C106.244 46.3787 106.192 47.904 106.088 49.464C107.162 49.36 108.272 49.308 109.416 49.308V53.26H95.7917V49.88ZM109.832 36.932C114.026 36.932 116.124 33.656 116.124 27.104C116.124 24.5387 115.656 22.3547 114.72 20.552C113.818 18.7493 112.449 17.848 110.612 17.848C109.745 17.848 108.913 18.056 108.116 18.472C107.353 18.888 106.729 19.4427 106.244 20.136V35.996C106.59 36.2387 107.093 36.464 107.752 36.672C108.445 36.8453 109.138 36.932 109.832 36.932ZM139.866 40.832C137.335 40.832 135.099 40.2773 133.158 39.168C131.217 38.024 129.709 36.412 128.634 34.332C127.559 32.252 127.022 29.8253 127.022 27.052C127.022 24.6253 127.559 22.3547 128.634 20.24C129.743 18.0907 131.286 16.3747 133.262 15.092C135.238 13.8093 137.491 13.168 140.022 13.168C143.385 13.168 146.175 14.156 148.394 16.132C150.647 18.108 151.757 21.4013 151.722 26.012L134.666 26.324C134.666 29.3747 135.238 31.784 136.382 33.552C137.561 35.32 139.433 36.204 141.998 36.204C143.211 36.204 144.511 35.892 145.898 35.268C147.285 34.644 148.533 33.656 149.642 32.304L151.982 34.488C149.035 38.7173 144.997 40.832 139.866 40.832ZM144.546 22.684C144.442 18.7667 143.021 16.808 140.282 16.808C138.791 16.808 137.595 17.3453 136.694 18.42C135.827 19.46 135.255 20.8813 134.978 22.684H144.546ZM167.483 40.832C165.992 40.832 164.536 40.6413 163.115 40.26C161.693 39.8787 160.584 39.3933 159.787 38.804H159.735L159.891 40.364H155.939L155.731 31.42H159.111C159.284 33.0147 160.116 34.3667 161.607 35.476C163.132 36.5507 164.987 37.088 167.171 37.088C168.141 37.088 168.973 36.8627 169.667 36.412C170.395 35.9613 170.759 35.32 170.759 34.488C170.759 33.864 170.533 33.344 170.083 32.928C169.632 32.512 169.095 32.1653 168.471 31.888C167.847 31.6107 166.599 31.108 164.727 30.38C162.508 29.5133 160.844 28.8027 159.735 28.248C158.625 27.6933 157.62 26.8787 156.719 25.804C155.852 24.6947 155.419 23.2733 155.419 21.54C155.419 20.1187 155.765 18.784 156.459 17.536C157.187 16.2533 158.279 15.2133 159.735 14.416C161.225 13.584 163.045 13.168 165.195 13.168C166.2 13.168 167.292 13.324 168.471 13.636C169.649 13.948 170.637 14.3813 171.435 14.936H171.487L171.435 13.428H175.387V22.632H172.007C171.695 20.8293 170.897 19.408 169.615 18.368C168.332 17.328 166.755 16.808 164.883 16.808C163.912 16.808 163.097 17.0333 162.439 17.484C161.78 17.9347 161.451 18.628 161.451 19.564C161.451 20.5347 161.832 21.2627 162.595 21.748C163.357 22.1987 164.64 22.7187 166.443 23.308C166.651 23.3427 167.101 23.4813 167.795 23.724C170.741 24.764 172.995 25.9773 174.555 27.364C176.149 28.7507 176.947 30.5707 176.947 32.824C176.947 34.5573 176.496 36.0307 175.595 37.244C174.728 38.4227 173.567 39.324 172.111 39.948C170.689 40.5373 169.147 40.832 167.483 40.832Z" fill="white"/>
</svg>
